HIERARCHY
ROOT Hips
{
  OFFSET 71.7574 47.5266 353.468
  CHANNELS 6 Xposition Yposition Zposition Zrotation Xrotation Yrotation
  JOINT Spine
  {
    OFFSET 0.0 0.0 0.0
    CHANNELS 3 Zrotation Xrotation Yrotation
    JOINT Spine1
    {
      OFFSET 38.68 0.0 0.0
      CHANNELS 3 Zrotation Xrotation Yrotation
      JOINT Neck
      {
        OFFSET 0.0 0.0 0.0
        CHANNELS 3 Zrotation Xrotation Yrotation
        JOINT Head
        {
          OFFSET 0.0 0.0 0.0
          CHANNELS 3 Zrotation Xrotation Yrotation
          End Site
          {
            OFFSET 17 0 0
          }
        }
      }
      JOINT LeftShoulder
      {
        OFFSET 0.0 0.0 14.2
        CHANNELS 3 Zrotation Xrotation Yrotation
        JOINT LeftArm
        {
          OFFSET 0.0 0.0 0.0
          CHANNELS 3 Zrotation Xrotation Yrotation
          JOINT LeftForeArm
          {
            OFFSET 21.3 0.0 0.0
            CHANNELS 3 Zrotation Xrotation Yrotation
            JOINT LeftHand
            {
              OFFSET 21.3 0.0 0.0
              CHANNELS 3 Zrotation Xrotation Yrotation
              End Site
              {
                OFFSET 7.2 0 0
              }
            }
          }
        }
      }
      JOINT RightShoulder
      {
        OFFSET 0.0 0.0 -14.2
        CHANNELS 3 Zrotation Xrotation Yrotation
        JOINT RightArm
        {
          OFFSET 0.0 0.0 0.0
          CHANNELS 3 Zrotation Xrotation Yrotation
          JOINT RightForeArm
          {
            OFFSET 21.3 0.0 0.0
            CHANNELS 3 Zrotation Xrotation Yrotation
            JOINT RightHand
            {
              OFFSET 21.3 0.0 0.0
              CHANNELS 3 Zrotation Xrotation Yrotation
              End Site
              {
                OFFSET 7.2 0 0
              }
            }
          }
        }
      }
    }
  }
  JOINT LeftUpLeg
  {
    OFFSET 0.0 0.0 14.2
    CHANNELS 3 Zrotation Xrotation Yrotation
    JOINT LeftLeg
    {
      OFFSET 21.3 0.0 0.0
      CHANNELS 3 Zrotation Xrotation Yrotation
      JOINT LeftFoot
      {
        OFFSET 21.3 0.0 0.0
        CHANNELS 3 Zrotation Xrotation Yrotation
        End Site
        {
          OFFSET 0 -10.8 0
        }
      }
    }
  }
  JOINT RightUpLeg
  {
    OFFSET 0.0 0.0 -14.2
    CHANNELS 3 Zrotation Xrotation Yrotation
    JOINT RightLeg
    {
      OFFSET 21.3 0.0 0.0
      CHANNELS 3 Zrotation Xrotation Yrotation
      JOINT RightFoot
      {
        OFFSET 21.3 0.0 0.0
        CHANNELS 3 Zrotation Xrotation Yrotation
        End Site
        {
          OFFSET 0 -10.8 0
        }
      }
    }
  }
  JOINT Tail
  {
    OFFSET 0.0 0.0 0.0
    CHANNELS 3 Zrotation Xrotation Yrotation
    JOINT Tail1
    {
      OFFSET 0.0 0.0 0.0
      CHANNELS 3 Zrotation Xrotation Yrotation
      End Site
      {
        OFFSET 12 0 0
      }
    }
  }
}
MOTION
Frames:	21
Frame Time:	0.0166667
-21.892 122.023 -87.6218 -9.5441 -3.96869 66.5028 -172.049 6.94098 0.581806 12.0727 4.77788 26.8187 11.5959 1.91595 12.6601 -124.816 86.4723 158.868 -111.835 -36.0996 -142.833 133.647 -32.7228 -129.343 -70.517 12.1156 6.84645 -17.8304 3.19076 -16.8491 77.21 -29.727 50.9454 45.04 -12.9094 -37.1865 -93.3076 5.44079 -13.7815 -0.546063 0.81651 0.600439 -120.641 -5.44641 -31.9109 82.245 -0.0190766 13.5532 46.9977 -1.88523 -4.65269 -131.581 -2.87119 -6.94549 68.8841 -14.3168 -0.149784 61.6261 2.0282 -0.964017 -58.5989 36.5642 5.08496 -1.47318 -63.0978 0.80295 
-21.9474 122.007 -87.43 -9.71892 -3.64391 65.7204 -172.043 6.86045 1.02657 11.4873 4.61284 25.4452 11.3943 1.74266 12.4711 -124.271 86.8182 159.132 -111.887 -35.9833 -143.201 132.81 -33.249 -129.711 -69.6895 12.856 6.35047 -18.2098 3.0502 -16.2712 77.1084 -29.9234 51.0041 39.0179 -14.9848 -38.0397 -89.1182 -0.583012 -10.5122 -1.40868 0.609175 1.97519 -120.41 -5.39088 -31.9444 82.3331 -0.0981493 13.421 47.0653 -1.85365 -4.6231 -131.992 -2.73288 -7.37801 69.1493 -14.6578 -0.028773 62.0873 2.08875 -0.944257 -57.5792 36.3316 3.26503 -1.78999 -60.2311 0.280908 
-22.047 121.959 -87.149 -9.75737 -3.07552 64.7581 -172.141 6.78402 2.05093 10.5208 4.37433 23.2207 11.1959 1.42702 12.1227 -121.341 87.1738 156.97 -111.743 -35.4192 -143.994 131.79 -33.9521 -130.958 -68.7577 13.4228 6.07556 -19.0105 3.11182 -16.1929 76.8127 -30.4228 51.0149 31.8943 -16.9983 -39.3663 -82.8622 -9.35389 -6.75334 -4.41932 1.0065 0.97839 -120.282 -5.28451 -31.8128 82.453 -0.229818 13.2069 47.1413 -1.80415 -4.57625 -132.728 -2.52594 -7.63288 69.5228 -15.2413 -0.0812408 62.4919 2.17818 -0.888445 -56.3616 36.1794 0.730532 -2.17876 -56.1299 -0.338917 
-22.194 121.895 -86.8635 -9.52179 -2.42622 63.8843 -172.409 6.78275 3.32751 9.48217 4.23131 20.755 10.944 1.08919 11.8841 -118.155 87.677 154.31 -111.448 -34.6499 -144.848 130.894 -34.5173 -132.393 -67.9826 13.0518 6.14164 -19.8946 3.23407 -16.1925 76.4907 -31.1196 51.354 26.3517 -19.4701 -41.3748 -75.3892 -16.3362 -2.66449 -6.65303 1.17877 0.3527 -120.24 -5.32062 -31.5194 82.4439 -0.353569 13.0914 46.994 -1.75785 -4.53167 -133.68 -2.36688 -7.61895 69.9751 -15.6018 -0.243528 62.7609 2.23792 -0.84702 -55.4496 36.1666 -1.62209 -2.52742 -52.0338 -0.825237 
-22.4139 121.832 -86.5922 -9.07195 -1.86097 62.943 -172.707 6.81794 4.43651 8.45459 4.18754 18.4306 10.506 0.846297 11.5558 -118.404 88.4354 155.072 -110.895 -33.5367 -145.815 130.23 -35.042 -134.143 -67.4686 12.4375 6.30327 -20.5 3.22974 -15.8883 76.243 -32.0021 52.3146 22.8227 -22.8322 -44.9509 -69.6779 -16.1355 0.781099 -5.34123 0.330693 3.29459 -120.033 -5.47822 -31.126 82.3036 -0.369434 13.0761 46.9297 -1.73846 -4.52303 -134.684 -2.40424 -7.68818 70.6022 -15.6778 -0.224444 63.0302 2.24692 -0.857417 -54.7899 36.2385 -3.69765 -2.87883 -47.912 -1.27746 
-22.6946 121.763 -86.3332 -8.34361 -1.3128 62.0119 -173.364 6.79536 5.46437 7.82033 4.18839 16.3368 9.70786 0.576365 10.968 -121.111 89.2889 158.65 -110.256 -32.3504 -146.764 130.147 -35.3949 -135.865 -66.776 12.0148 6.54023 -21.2731 3.34188 -15.9009 75.8873 -32.8686 52.8347 23.6642 -24.0539 -48.5056 -68.1869 -17.0657 2.26477 -6.24489 -0.0810858 4.75932 -119.773 -5.67577 -30.6581 81.9633 -0.0453845 13.1672 47.1512 -1.80577 -4.62348 -135.584 -2.57433 -7.58165 71.1531 -15.6618 -0.244009 62.9151 2.22009 -0.862366 -54.3605 36.3975 -5.53021 -3.26859 -43.581 -1.75243 
-23.0187 121.688 -86.0778 -7.43947 -0.763659 61.0536 -174.389 6.66824 6.399 7.67942 4.19636 14.3512 8.71403 0.403674 10.0543 -157.431 89.8234 -164.213 -109.805 -31.6085 -147.25 130.82 -35.8054 -136.532 -65.4352 11.6241 6.65375 -22.3788 3.73713 -16.4945 75.4536 -33.4011 52.4307 27.6207 -23.2895 -50.9664 -68.5775 -20.4083 3.12901 -9.05264 0.134564 3.64402 -119.474 -6.014 -30.166 81.5085 0.260475 13.4173 47.3837 -1.90227 -4.75578 -136.302 -2.69486 -7.34495 71.6207 -15.3139 -0.347657 62.3012 2.16221 -0.855455 -54.0415 36.492 -7.16141 -3.64164 -39.0619 -2.21075 
-23.3698 121.613 -85.8161 -6.53006 -0.215753 60.0202 -175.519 6.48916 7.14241 7.79406 4.22323 12.4454 7.88525 0.40609 8.95435 109.904 89.6201 -71.3905 -109.276 -30.8444 -147.582 131.396 -36.17 -137.323 -64.3689 11.4338 6.7996 -23.268 3.90394 -16.5964 75.2006 -33.658 52.1027 30.0605 -23.5141 -53.0764 -68.5922 -20.4495 4.52001 -8.62958 -0.0998138 4.1478 -119.121 -6.25943 -29.634 80.9727 0.776056 13.6774 47.7768 -2.04281 -4.94388 -136.863 -2.62207 -6.78898 71.9389 -15.2436 -0.65412 61.6917 2.20994 -0.771307 -53.889 36.4292 -8.52077 -3.92405 -34.6275 -2.68431 
-23.7443 121.536 -85.5666 -5.61059 0.33464 58.9392 -176.403 6.26023 7.48992 7.41352 4.13334 11.0372 7.61666 0.429663 7.50129 107.019 89.4838 -68.3239 -108.31 -29.7215 -147.514 131.329 -36.4683 -138.263 -63.8184 11.2535 6.91308 -23.4897 3.46064 -15.2031 74.9538 -33.676 51.3391 30.9302 -24.5997 -53.7138 -68.2904 -20.2586 5.09216 -8.55181 -0.447372 5.48721 -118.846 -6.67247 -29.1287 80.482 0.754905 13.9364 48.0134 -2.08985 -5.00492 -137.379 -2.55012 -6.13446 72.1067 -15.4644 -0.979974 61.1525 2.33876 -0.624349 -53.9645 36.2533 -9.56865 -4.11188 -30.4978 -3.15621 
-24.1327 121.458 -85.3358 -4.75653 0.870571 57.7825 -177.273 6.00587 7.49071 7.13033 4.02606 10.0283 7.33764 0.426175 5.88316 102.213 89.3511 -63.1655 -107.698 -29.1256 -147.158 131.144 -36.8291 -138.467 -63.1941 10.6048 6.84294 -23.1169 3.20037 -14.3691 74.6783 -33.7871 50.6773 31.4061 -25.3998 -53.4598 -67.692 -21.6664 4.79298 -10.2669 -0.509724 6.02042 -118.696 -7.13392 -28.6025 80.1608 0.327702 14.0401 48.2466 -2.05852 -4.9596 -137.87 -2.66311 -5.84284 72.2999 -15.7964 -1.03752 60.5526 2.47242 -0.468673 -54.237 35.9026 -10.2716 -4.22223 -26.897 -3.59969 
-24.5059 121.382 -85.1081 -4.10571 1.4455 56.5225 -178.258 5.80706 7.3584 7.3274 4.05301 8.95761 6.77442 0.425141 4.33597 102.73 89.2947 -63.4947 -107.763 -29.3483 -146.777 130.696 -37.1285 -138.021 -62.4933 10.4122 6.56149 -22.658 3.03457 -13.8949 74.4033 -34.1084 50.4318 31.8219 -26.6436 -53.4085 -67.5991 -21.619 4.73368 -10.3603 -0.639362 6.67939 -118.632 -7.35202 -28.1269 79.9421 0.246108 13.9169 48.6326 -2.05371 -4.94852 -138.275 -2.76463 -5.88331 72.4382 -16.3522 -0.933409 59.9458 2.63553 -0.287376 -54.675 35.2638 -10.6558 -4.30974 -24.0229 -4.01169 
-24.8548 121.317 -84.872 -3.64866 2.05682 55.1353 -178.951 5.62059 7.056 7.19762 4.0756 7.78748 6.68666 0.590105 2.92449 107.383 89.0972 -68.4104 -107.727 -29.4656 -146.354 130.642 -37.8986 -137.834 -61.6567 10.5521 6.27241 -22.2283 2.95749 -13.793 74.2212 -34.216 50.071 31.9298 -28.1998 -53.2305 -67.6742 -21.0186 4.56814 -10.1009 -0.8029 7.47446 -118.562 -7.62238 -27.9313 79.8312 0.0422225 13.8638 48.9129 -2.01676 -4.90039 -138.651 -2.64373 -6.00376 72.4469 -17.1671 -0.932419 59.6623 2.85107 -0.0744384 -55.34 34.341 -10.659 -4.46942 -21.8759 -4.43975 
-25.17 121.273 -84.6381 -3.38006 2.63366 53.7566 -179.421 5.43893 6.83324 6.98058 4.10654 6.37169 6.67985 0.90575 1.79974 109.706 88.6439 -70.7109 -107.795 -29.704 -145.954 131.001 -39.0189 -137.759 -60.6238 10.6877 5.95524 -21.6636 2.95617 -13.9629 74.2165 -34.094 49.8198 31.4912 -29.3641 -53.227 -67.2485 -21.1508 4.3326 -10.4805 -0.899625 7.9895 -118.389 -7.73614 -27.7753 79.7282 -0.198317 13.7625 49.368 -1.9888 -4.87229 -138.933 -2.27231 -5.98121 72.3184 -17.9336 -1.18538 59.7513 3.03156 0.089628 -56.0426 33.2139 -10.3534 -4.7033 -20.5339 -4.81073 
-25.4721 121.261 -84.4193 -3.27134 3.16981 52.4607 -179.782 5.30054 6.66733 6.84257 4.17808 4.94888 6.64706 1.27283 0.78291 114.754 88.2683 -75.5527 -108.154 -30.338 -145.461 131.533 -40.2378 -137.306 -59.4719 10.6226 5.61423 -20.833 2.89586 -13.9612 74.191 -33.8764 49.3142 31.155 -30.2768 -53.2678 -66.7744 -21.295 4.351 -10.5182 -1.00305 8.4966 -118.035 -7.75855 -27.7393 79.487 -0.366494 13.6305 49.8011 -1.97448 -4.85577 -139.002 -1.92193 -6.25562 72.1242 -18.4933 -1.23542 59.944 3.16962 0.201452 -56.6704 31.954 -9.87068 -5.01753 -20.0249 -5.04095 
-25.7931 121.258 -84.198 -3.16064 3.67218 51.246 179.892 5.17912 6.55051 6.67632 4.26076 3.53915 6.61007 1.59897 -0.222573 122.117 88.0791 -82.5213 -108.52 -31.0299 -144.87 131.867 -41.5187 -137.068 -58.9773 9.89529 5.57583 -19.2862 2.50529 -12.9986 74.1407 -33.6072 48.6221 31.1542 -30.8987 -53.3855 -66.2212 -21.6269 4.58836 -10.5108 -1.07471 8.81334 -117.63 -7.84192 -27.7899 79.1805 -0.469912 13.5438 50.2176 -1.97341 -4.8482 -138.931 -1.57828 -6.3868 71.8454 -19.2407 -1.35126 60.194 3.36555 0.353934 -57.406 30.7211 -9.19428 -5.39509 -20.2907 -5.10641 
-26.124 121.267 -83.9795 -3.0997 3.97027 50.1296 179.826 5.06964 6.6761 6.45007 4.36265 1.80578 6.53572 1.82592 -0.821057 119.444 87.675 -79.4665 -108.723 -31.6533 -143.983 132.254 -42.8654 -137.01 -59.0903 8.81553 5.85431 -17.3209 1.83457 -11.1274 74.1539 -33.3143 48.074 31.37 -31.4735 -53.6887 -65.8057 -21.9034 4.8755 -10.4456 -1.16316 9.16333 -117.03 -8.0285 -27.6905 78.8966 -0.7171 13.4205 50.6307 -1.94763 -4.8121 -138.629 -1.31439 -6.46779 71.7048 -19.8613 -1.45892 60.2442 3.52624 0.49463 -58.1253 29.5354 -8.21713 -5.79742 -21.4168 -4.99797 
-26.4576 121.292 -83.775 -3.06088 4.13336 49.0761 179.985 4.96813 6.8918 6.05165 4.47121 -0.0243801 6.71904 1.88187 -1.20172 116.139 87.4431 -76.4965 -108.808 -32.187 -142.987 133.379 -44.52 -136.945 -59.093 7.43183 6.2643 -15.152 1.32638 -9.61284 74.1745 -32.9947 47.4833 31.7909 -32.0409 -53.904 -65.4468 -22.1684 5.13365 -10.4265 -1.26523 9.55845 -116.266 -8.27667 -27.5526 78.5551 -0.995148 13.3395 51.1046 -1.92928 -4.7868 -138.207 -1.18334 -6.80589 71.7312 -20.1655 -1.34668 60.1117 3.59824 0.576843 -58.829 28.3507 -7.01471 -6.189 -23.2821 -4.72307 
-26.7895 121.322 -83.5878 -2.99761 4.22967 48.1489 -179.814 4.90533 7.15719 5.62167 4.60193 -1.70265 6.89036 1.76997 -1.75813 121.738 87.8384 -82.4984 -108.992 -32.7981 -142.135 134.147 -45.8948 -136.758 -59.5663 5.0542 6.53043 -11.6212 0.783032 -7.52921 74.1395 -32.7113 46.7815 32.6194 -32.5018 -53.8034 -65.0589 -22.8698 5.43505 -10.715 -1.3356 9.80533 -115.464 -8.46448 -27.3844 78.1671 -1.13757 13.263 51.6164 -1.93678 -4.79185 -137.813 -1.11124 -7.08901 71.7979 -20.4011 -1.23957 60.1318 3.63337 0.613714 -59.5415 27.2486 -5.70743 -6.4244 -25.8617 -4.19209 
-27.129 121.346 -83.4106 -2.92729 4.25793 47.3482 -179.681 4.86569 7.4835 5.41488 4.75066 -3.30864 6.73889 1.59296 -2.16369 127.467 88.2166 -88.2713 -109.295 -33.5541 -141.335 132.873 -45.8536 -136.773 -61.3655 0.716686 6.73958 -5.87584 0.225018 -3.54262 74.0886 -32.5223 46.2188 33.3489 -33.087 -53.4749 -64.8554 -23.3639 5.62697 -10.811 -1.42861 10.2084 -114.69 -8.69609 -27.2301 77.7812 -1.13896 13.137 52.0892 -1.94965 -4.79514 -137.438 -1.2806 -7.50277 71.9708 -20.9142 -0.957359 60.1867 3.6728 0.653354 -60.203 26.1911 -4.3088 -6.51894 -28.7836 -3.53589 
-27.4747 121.369 -83.2353 -2.88647 4.21854 46.5834 -179.419 4.82749 7.66446 5.13487 4.89346 -4.75452 6.53877 1.43075 -2.61317 152.26 88.7095 -113.202 -109.452 -34.0701 -140.667 128.461 -43.9476 -137.6 -65.3261 -9.7905 7.62806 4.56943 0.944517 -1.94148 74.1169 -32.2896 45.812 33.736 -33.9379 -53.0955 -64.9021 -23.1667 5.63818 -10.5181 -1.60358 10.995 -113.91 -8.65345 -26.6086 77.5301 -1.52698 12.7514 52.8331 -1.9093 -4.75203 -137.001 -1.50794 -7.88986 72.1937 -21.4057 -0.693492 60.0984 3.66961 0.673179 -60.8378 25.1254 -2.81511 -6.50356 -31.7731 -2.85812 
-27.8215 121.396 -83.0644 -2.7613 4.14913 45.8582 -179.23 4.78372 7.72405 4.9263 5.01767 -5.98455 6.27511 1.15944 -2.86101 177.272 88.9616 -138.377 -109.542 -34.3291 -140.372 122.955 -40.2478 -138.286 -69.3523 -25.3945 9.6921 15.9351 2.32869 -7.5697 74.1637 -32.0733 45.4951 34.2173 -34.6645 -52.7305 -65.0945 -22.7889 5.61704 -10.2248 -1.78652 11.7687 -113.019 -8.3696 -25.2964 77.1344 -2.15822 12.0748 53.5163 -1.82744 -4.67667 -136.606 -1.67221 -8.10125 72.3875 -21.5737 -0.542646 59.9966 3.61925 0.64786 -61.4894 24.0893 -1.25459 -6.32865 -34.5799 -2.15241 
